<svg width="52" height="52" viewBox="0 0 52 52" fill="none" xmlns="http://www.w3.org/2000/svg">
<path d="M0 13C0 11.2761 0.68482 9.62279 1.90381 8.40381C3.12279 7.18482 4.77609 6.5 6.5 6.5H45.5C47.2239 6.5 48.8772 7.18482 50.0962 8.40381C51.3152 9.62279 52 11.2761 52 13V29.25H0V13ZM37.375 16.25C36.944 16.25 36.5307 16.4212 36.226 16.726C35.9212 17.0307 35.75 17.444 35.75 17.875V21.125C35.75 21.556 35.9212 21.9693 36.226 22.274C36.5307 22.5788 36.944 22.75 37.375 22.75H43.875C44.306 22.75 44.7193 22.5788 45.024 22.274C45.3288 21.9693 45.5 21.556 45.5 21.125V17.875C45.5 17.444 45.3288 17.0307 45.024 16.726C44.7193 16.4212 44.306 16.25 43.875 16.25H37.375ZM0 35.75V39C0 40.7239 0.68482 42.3772 1.90381 43.5962C3.12279 44.8152 4.77609 45.5 6.5 45.5H45.5C47.2239 45.5 48.8772 44.8152 50.0962 43.5962C51.3152 42.3772 52 40.7239 52 39V35.75H0Z" fill="#174532"/>
</svg>
