<svg width="21" height="21" viewBox="0 0 21 21" fill="none" xmlns="http://www.w3.org/2000/svg">
<path d="M13.7812 14.4375C14.4469 14.4381 15.1094 14.3467 15.75 14.1658V17.3906C15.75 17.9998 15.508 18.584 15.0773 19.0148C14.6465 19.4455 14.0623 19.6875 13.4531 19.6875H7.54688C6.93771 19.6875 6.35349 19.4455 5.92274 19.0148C5.49199 18.584 5.25 17.9998 5.25 17.3906V3.60938C5.25 2.3415 6.279 1.3125 7.54688 1.3125H9.62981C8.37451 2.19463 7.43292 3.45378 6.94164 4.90725C6.45036 6.36072 6.43495 7.93291 6.89764 9.39574C7.36033 10.8586 8.27706 12.1359 9.51482 13.0425C10.7526 13.9491 12.247 14.4377 13.7812 14.4375ZM9.1875 15.75C9.01345 15.75 8.84653 15.8191 8.72346 15.9422C8.60039 16.0653 8.53125 16.2322 8.53125 16.4062C8.53125 16.5803 8.60039 16.7472 8.72346 16.8703C8.84653 16.9934 9.01345 17.0625 9.1875 17.0625H11.8125C11.9865 17.0625 12.1535 16.9934 12.2765 16.8703C12.3996 16.7472 12.4688 16.5803 12.4688 16.4062C12.4688 16.2322 12.3996 16.0653 12.2765 15.9422C12.1535 15.8191 11.9865 15.75 11.8125 15.75H9.1875ZM19.6875 7.21875C19.6875 7.99437 19.5347 8.76239 19.2379 9.47897C18.9411 10.1956 18.506 10.8467 17.9576 11.3951C17.4092 11.9435 16.7581 12.3786 16.0415 12.6754C15.3249 12.9722 14.5569 13.125 13.7812 13.125C13.0056 13.125 12.2376 12.9722 11.521 12.6754C10.8044 12.3786 10.1533 11.9435 9.6049 11.3951C9.05645 10.8467 8.6214 10.1956 8.32459 9.47897C8.02777 8.76239 7.875 7.99437 7.875 7.21875C7.875 5.65232 8.49726 4.15004 9.6049 3.0424C10.7125 1.93476 12.2148 1.3125 13.7812 1.3125C15.3477 1.3125 16.85 1.93476 17.9576 3.0424C19.0652 4.15004 19.6875 5.65232 19.6875 7.21875ZM16.8709 4.78537C16.8099 4.72426 16.7375 4.67577 16.6578 4.64269C16.578 4.60961 16.4926 4.59258 16.4062 4.59258C16.3199 4.59258 16.2345 4.60961 16.1547 4.64269C16.075 4.67577 16.0026 4.72426 15.9416 4.78537L12.4688 8.25956L11.6209 7.41037C11.5599 7.34936 11.4874 7.30096 11.4077 7.26794C11.328 7.23492 11.2425 7.21792 11.1562 7.21792C11.07 7.21792 10.9845 7.23492 10.9048 7.26794C10.8251 7.30096 10.7526 7.34936 10.6916 7.41037C10.6306 7.47139 10.5822 7.54383 10.5492 7.62355C10.5162 7.70327 10.4992 7.78871 10.4992 7.875C10.4992 7.96129 10.5162 8.04673 10.5492 8.12645C10.5822 8.20617 10.6306 8.27861 10.6916 8.33963L12.0041 9.65213C12.0651 9.71324 12.1375 9.76173 12.2172 9.79481C12.297 9.82789 12.3824 9.84492 12.4688 9.84492C12.5551 9.84492 12.6405 9.82789 12.7203 9.79481C12.8 9.76173 12.8724 9.71324 12.9334 9.65213L16.8709 5.71463C16.932 5.65367 16.9805 5.58125 17.0136 5.50152C17.0466 5.42179 17.0637 5.33632 17.0637 5.25C17.0637 5.16368 17.0466 5.07821 17.0136 4.99848C16.9805 4.91875 16.932 4.84633 16.8709 4.78537Z" fill="#174532"/>
</svg>
