<svg width="64" height="72" viewBox="0 0 64 72" fill="none" xmlns="http://www.w3.org/2000/svg">
<g clip-path="url(#clip0_1445_276)">
<path d="M48.4609 6.03574C49.1806 5.32143 50.3444 5.32143 50.9952 6.03566L55.8952 10.9124C56.3086 11.2553 56.5 11.7209 56.5 12.2056C56.5 12.6911 56.3086 13.159 55.8952 13.4334L50.9952 18.3107C50.3444 19.0881 49.1806 19.0881 48.4609 18.3107C47.7489 17.663 47.7489 16.5046 48.4609 15.7882L50.2295 13.9668H36.9C35.8817 13.9668 35.0625 13.2124 35.0625 12.2056C35.0625 11.1959 35.8817 10.3766 36.9 10.3766L50.2295 10.3088L48.4609 8.62228C47.7489 7.9082 47.7489 6.74982 48.4609 6.03574ZM15.4702 34.1622L13.7735 35.9836L27.0311 35.915C28.1183 35.915 28.8686 36.7991 28.8686 37.7441C28.8686 38.8186 28.1183 39.5731 27.0311 39.5731L13.7743 39.6417L15.4702 41.3945C16.2511 42.1108 16.2511 43.2692 15.4702 43.917C14.8194 44.6943 13.6556 44.6943 12.9382 43.917L8.03816 39.0396C7.69355 38.7653 7.49992 38.3004 7.5 37.7441C7.5 37.3249 7.69363 36.86 8.03823 36.5171L12.9382 31.6397C13.6556 30.931 14.8194 30.931 15.4702 31.6397C16.2511 32.3561 16.2511 33.5145 15.4702 34.1622ZM14.7811 10.3774H33.3705C33.0795 10.9246 32.9188 11.5464 32.9188 12.1378C32.9188 14.3936 34.7027 16.1007 36.9 16.1007H44.3342C44.5869 17.5029 45.3908 18.6461 46.5009 19.3624C46.6311 19.5453 46.7842 19.7206 46.945 19.8883C48.4992 21.4353 51.0258 21.4353 52.58 19.8883L54.05 18.4174V34.7643C54.05 37.4545 51.8527 39.6417 49.15 39.6417H30.6295C30.9205 39.093 31.0123 38.4757 31.0123 37.7441C31.0123 35.6255 29.2973 33.7812 27.0311 33.7812L19.6658 33.8498C19.4055 32.5161 18.6092 31.373 17.4991 30.6566C17.3689 30.4737 17.2158 30.2984 17.055 30.1308C15.5008 28.5837 12.9773 28.5837 11.4223 30.1308L9.88109 31.6016V15.2548C9.88109 12.5608 12.1435 10.3774 14.7811 10.3774ZM14.7811 20.1321C17.5527 20.1321 19.6811 17.9449 19.6811 15.2548H14.7811V20.1321ZM49.15 34.7643V29.8869C46.4473 29.8869 44.25 32.0741 44.25 34.7643H49.15ZM31.9311 32.3256C36.0578 32.3256 39.35 29.0486 39.35 25.0095C39.35 20.9019 36.0578 17.6934 31.9311 17.6934C27.8733 17.6934 24.5811 20.9019 24.5811 25.0095C24.5811 29.0486 27.8733 32.3256 31.9311 32.3256Z" fill="#9BC94A"/>
</g>
<path d="M3.48 67.57C3.02 67.57 2.60667 67.49 2.24 67.33C1.88 67.1633 1.59667 66.9367 1.39 66.65C1.18333 66.3567 1.07667 66.02 1.07 65.64H2.04C2.07333 65.9667 2.20667 66.2433 2.44 66.47C2.68 66.69 3.02667 66.8 3.48 66.8C3.91333 66.8 4.25333 66.6933 4.5 66.48C4.75333 66.26 4.88 65.98 4.88 65.64C4.88 65.3733 4.80667 65.1567 4.66 64.99C4.51333 64.8233 4.33 64.6967 4.11 64.61C3.89 64.5233 3.59333 64.43 3.22 64.33C2.76 64.21 2.39 64.09 2.11 63.97C1.83667 63.85 1.6 63.6633 1.4 63.41C1.20667 63.15 1.11 62.8033 1.11 62.37C1.11 61.99 1.20667 61.6533 1.4 61.36C1.59333 61.0667 1.86333 60.84 2.21 60.68C2.56333 60.52 2.96667 60.44 3.42 60.44C4.07333 60.44 4.60667 60.6033 5.02 60.93C5.44 61.2567 5.67667 61.69 5.73 62.23H4.73C4.69667 61.9633 4.55667 61.73 4.31 61.53C4.06333 61.3233 3.73667 61.22 3.33 61.22C2.95 61.22 2.64 61.32 2.4 61.52C2.16 61.7133 2.04 61.9867 2.04 62.34C2.04 62.5933 2.11 62.8 2.25 62.96C2.39667 63.12 2.57333 63.2433 2.78 63.33C2.99333 63.41 3.29 63.5033 3.67 63.61C4.13 63.7367 4.5 63.8633 4.78 63.99C5.06 64.11 5.3 64.3 5.5 64.56C5.7 64.8133 5.8 65.16 5.8 65.6C5.8 65.94 5.71 66.26 5.53 66.56C5.35 66.86 5.08333 67.1033 4.73 67.29C4.37667 67.4767 3.96 67.57 3.48 67.57ZM12.2391 64.55C12.2391 64.7233 12.2291 64.9067 12.2091 65.1H7.82914C7.86247 65.64 8.04581 66.0633 8.37914 66.37C8.71914 66.67 9.12914 66.82 9.60914 66.82C10.0025 66.82 10.3291 66.73 10.5891 66.55C10.8558 66.3633 11.0425 66.1167 11.1491 65.81H12.1291C11.9825 66.3367 11.6891 66.7667 11.2491 67.1C10.8091 67.4267 10.2625 67.59 9.60914 67.59C9.08914 67.59 8.62247 67.4733 8.20914 67.24C7.80247 67.0067 7.48247 66.6767 7.24914 66.25C7.01581 65.8167 6.89914 65.3167 6.89914 64.75C6.89914 64.1833 7.01247 63.6867 7.23914 63.26C7.46581 62.8333 7.78247 62.5067 8.18914 62.28C8.60247 62.0467 9.07581 61.93 9.60914 61.93C10.1291 61.93 10.5891 62.0433 10.9891 62.27C11.3891 62.4967 11.6958 62.81 11.9091 63.21C12.1291 63.6033 12.2391 64.05 12.2391 64.55ZM11.2991 64.36C11.2991 64.0133 11.2225 63.7167 11.0691 63.47C10.9158 63.2167 10.7058 63.0267 10.4391 62.9C10.1791 62.7667 9.88914 62.7 9.56914 62.7C9.10914 62.7 8.71581 62.8467 8.38914 63.14C8.06914 63.4333 7.88581 63.84 7.83914 64.36H11.2991ZM16.2103 61.92C16.877 61.92 17.417 62.1233 17.8303 62.53C18.2436 62.93 18.4503 63.51 18.4503 64.27V67.5H17.5503V64.4C17.5503 63.8533 17.4136 63.4367 17.1403 63.15C16.867 62.8567 16.4936 62.71 16.0203 62.71C15.5403 62.71 15.157 62.86 14.8703 63.16C14.5903 63.46 14.4503 63.8967 14.4503 64.47V67.5H13.5403V62.02H14.4503V62.8C14.6303 62.52 14.8736 62.3033 15.1803 62.15C15.4936 61.9967 15.837 61.92 16.2103 61.92ZM19.6968 64.74C19.6968 64.18 19.8101 63.69 20.0368 63.27C20.2635 62.8433 20.5735 62.5133 20.9668 62.28C21.3668 62.0467 21.8135 61.93 22.3068 61.93C22.7335 61.93 23.1301 62.03 23.4968 62.23C23.8635 62.4233 24.1435 62.68 24.3368 63V60.1H25.2568V67.5H24.3368V66.47C24.1568 66.7967 23.8901 67.0667 23.5368 67.28C23.1835 67.4867 22.7701 67.59 22.2968 67.59C21.8101 67.59 21.3668 67.47 20.9668 67.23C20.5735 66.99 20.2635 66.6533 20.0368 66.22C19.8101 65.7867 19.6968 65.2933 19.6968 64.74ZM24.3368 64.75C24.3368 64.3367 24.2535 63.9767 24.0868 63.67C23.9201 63.3633 23.6935 63.13 23.4068 62.97C23.1268 62.8033 22.8168 62.72 22.4768 62.72C22.1368 62.72 21.8268 62.8 21.5468 62.96C21.2668 63.12 21.0435 63.3533 20.8768 63.66C20.7101 63.9667 20.6268 64.3267 20.6268 64.74C20.6268 65.16 20.7101 65.5267 20.8768 65.84C21.0435 66.1467 21.2668 66.3833 21.5468 66.55C21.8268 66.71 22.1368 66.79 22.4768 66.79C22.8168 66.79 23.1268 66.71 23.4068 66.55C23.6935 66.3833 23.9201 66.1467 24.0868 65.84C24.2535 65.5267 24.3368 65.1633 24.3368 64.75ZM36.7306 60.58V67.5H35.8206V62.34L33.5206 67.5H32.8806L30.5706 62.33V67.5H29.6606V60.58H30.6406L33.2006 66.3L35.7606 60.58H36.7306ZM40.7639 67.59C40.2506 67.59 39.7839 67.4733 39.3639 67.24C38.9506 67.0067 38.6239 66.6767 38.3839 66.25C38.1506 65.8167 38.0339 65.3167 38.0339 64.75C38.0339 64.19 38.1539 63.6967 38.3939 63.27C38.6406 62.8367 38.9739 62.5067 39.3939 62.28C39.8139 62.0467 40.2839 61.93 40.8039 61.93C41.3239 61.93 41.7939 62.0467 42.2139 62.28C42.6339 62.5067 42.9639 62.8333 43.2039 63.26C43.4506 63.6867 43.5739 64.1833 43.5739 64.75C43.5739 65.3167 43.4472 65.8167 43.1939 66.25C42.9472 66.6767 42.6106 67.0067 42.1839 67.24C41.7572 67.4733 41.2839 67.59 40.7639 67.59ZM40.7639 66.79C41.0906 66.79 41.3972 66.7133 41.6839 66.56C41.9706 66.4067 42.2006 66.1767 42.3739 65.87C42.5539 65.5633 42.6439 65.19 42.6439 64.75C42.6439 64.31 42.5572 63.9367 42.3839 63.63C42.2106 63.3233 41.9839 63.0967 41.7039 62.95C41.4239 62.7967 41.1206 62.72 40.7939 62.72C40.4606 62.72 40.1539 62.7967 39.8739 62.95C39.6006 63.0967 39.3806 63.3233 39.2139 63.63C39.0472 63.9367 38.9639 64.31 38.9639 64.75C38.9639 65.1967 39.0439 65.5733 39.2039 65.88C39.3706 66.1867 39.5906 66.4167 39.8639 66.57C40.1372 66.7167 40.4372 66.79 40.7639 66.79ZM47.5404 61.92C48.2071 61.92 48.7471 62.1233 49.1604 62.53C49.5737 62.93 49.7804 63.51 49.7804 64.27V67.5H48.8804V64.4C48.8804 63.8533 48.7437 63.4367 48.4704 63.15C48.1971 62.8567 47.8237 62.71 47.3504 62.71C46.8704 62.71 46.4871 62.86 46.2004 63.16C45.9204 63.46 45.7804 63.8967 45.7804 64.47V67.5H44.8704V62.02H45.7804V62.8C45.9604 62.52 46.2037 62.3033 46.5104 62.15C46.8237 61.9967 47.1671 61.92 47.5404 61.92ZM56.3669 64.55C56.3669 64.7233 56.3569 64.9067 56.3369 65.1H51.9569C51.9902 65.64 52.1735 66.0633 52.5069 66.37C52.8469 66.67 53.2569 66.82 53.7369 66.82C54.1302 66.82 54.4569 66.73 54.7169 66.55C54.9835 66.3633 55.1702 66.1167 55.2769 65.81H56.2569C56.1102 66.3367 55.8169 66.7667 55.3769 67.1C54.9369 67.4267 54.3902 67.59 53.7369 67.59C53.2169 67.59 52.7502 67.4733 52.3369 67.24C51.9302 67.0067 51.6102 66.6767 51.3769 66.25C51.1435 65.8167 51.0269 65.3167 51.0269 64.75C51.0269 64.1833 51.1402 63.6867 51.3669 63.26C51.5935 62.8333 51.9102 62.5067 52.3169 62.28C52.7302 62.0467 53.2035 61.93 53.7369 61.93C54.2569 61.93 54.7169 62.0433 55.1169 62.27C55.5169 62.4967 55.8235 62.81 56.0369 63.21C56.2569 63.6033 56.3669 64.05 56.3669 64.55ZM55.4269 64.36C55.4269 64.0133 55.3502 63.7167 55.1969 63.47C55.0435 63.2167 54.8335 63.0267 54.5669 62.9C54.3069 62.7667 54.0169 62.7 53.6969 62.7C53.2369 62.7 52.8435 62.8467 52.5169 63.14C52.1969 63.4333 52.0135 63.84 51.9669 64.36H55.4269ZM62.388 62.02L59.088 70.08H58.148L59.228 67.44L57.018 62.02H58.028L59.748 66.46L61.448 62.02H62.388Z" fill="#9BC94A"/>
<defs>
<clipPath id="clip0_1445_276">
<rect width="50" height="50" fill="white" transform="translate(7.5 0.5)"/>
</clipPath>
</defs>
</svg>
