<svg width="68" height="86" viewBox="0 0 68 86" fill="none" xmlns="http://www.w3.org/2000/svg">
<path d="M4.44711 62.91C4.70044 62.95 4.93044 63.0533 5.13711 63.22C5.35044 63.3867 5.51711 63.5933 5.63711 63.84C5.76378 64.0867 5.82711 64.35 5.82711 64.63C5.82711 64.9833 5.73711 65.3033 5.55711 65.59C5.37711 65.87 5.11378 66.0933 4.76711 66.26C4.42711 66.42 4.02378 66.5 3.55711 66.5H0.957111V59.53H3.45711C3.93044 59.53 4.33378 59.61 4.66711 59.77C5.00044 59.9233 5.25044 60.1333 5.41711 60.4C5.58378 60.6667 5.66711 60.9667 5.66711 61.3C5.66711 61.7133 5.55378 62.0567 5.32711 62.33C5.10711 62.5967 4.81378 62.79 4.44711 62.91ZM1.86711 62.54H3.39711C3.82378 62.54 4.15378 62.44 4.38711 62.24C4.62044 62.04 4.73711 61.7633 4.73711 61.41C4.73711 61.0567 4.62044 60.78 4.38711 60.58C4.15378 60.38 3.81711 60.28 3.37711 60.28H1.86711V62.54ZM3.47711 65.75C3.93044 65.75 4.28378 65.6433 4.53711 65.43C4.79044 65.2167 4.91711 64.92 4.91711 64.54C4.91711 64.1533 4.78378 63.85 4.51711 63.63C4.25044 63.4033 3.89378 63.29 3.44711 63.29H1.86711V65.75H3.47711ZM12.0499 61.02V66.5H11.1399V65.69C10.9666 65.97 10.7233 66.19 10.4099 66.35C10.1033 66.5033 9.76326 66.58 9.38992 66.58C8.96326 66.58 8.57992 66.4933 8.23992 66.32C7.89992 66.14 7.62992 65.8733 7.42992 65.52C7.23659 65.1667 7.13992 64.7367 7.13992 64.23V61.02H8.03992V64.11C8.03992 64.65 8.17659 65.0667 8.44992 65.36C8.72326 65.6467 9.09659 65.79 9.56992 65.79C10.0566 65.79 10.4399 65.64 10.7199 65.34C10.9999 65.04 11.1399 64.6033 11.1399 64.03V61.02H12.0499ZM18.4064 61.02L15.1064 69.08H14.1664L15.2464 66.44L13.0364 61.02H14.0464L15.7664 65.46L17.4664 61.02H18.4064ZM26.3072 64.95H23.2672L22.7072 66.5H21.7472L24.2672 59.57H25.3172L27.8272 66.5H26.8672L26.3072 64.95ZM26.0472 64.21L24.7872 60.69L23.5272 64.21H26.0472ZM29.4955 60.13C29.3221 60.13 29.1755 60.07 29.0555 59.95C28.9355 59.83 28.8755 59.6833 28.8755 59.51C28.8755 59.3367 28.9355 59.19 29.0555 59.07C29.1755 58.95 29.3221 58.89 29.4955 58.89C29.6621 58.89 29.8021 58.95 29.9155 59.07C30.0355 59.19 30.0955 59.3367 30.0955 59.51C30.0955 59.6833 30.0355 59.83 29.9155 59.95C29.8021 60.07 29.6621 60.13 29.4955 60.13ZM29.9355 61.02V66.5H29.0255V61.02H29.9355ZM32.4964 61.91C32.6564 61.5967 32.8831 61.3533 33.1764 61.18C33.4764 61.0067 33.8397 60.92 34.2664 60.92V61.86H34.0264C33.0064 61.86 32.4964 62.4133 32.4964 63.52V66.5H31.5864V61.02H32.4964V61.91ZM36.5269 61.77V65C36.5269 65.2667 36.5835 65.4567 36.6969 65.57C36.8102 65.6767 37.0069 65.73 37.2869 65.73H37.9569V66.5H37.1369C36.6302 66.5 36.2502 66.3833 35.9969 66.15C35.7435 65.9167 35.6169 65.5333 35.6169 65V61.77H34.9069V61.02H35.6169V59.64H36.5269V61.02H37.9569V61.77H36.5269ZM39.6295 60.13C39.4561 60.13 39.3095 60.07 39.1895 59.95C39.0695 59.83 39.0095 59.6833 39.0095 59.51C39.0095 59.3367 39.0695 59.19 39.1895 59.07C39.3095 58.95 39.4561 58.89 39.6295 58.89C39.7961 58.89 39.9361 58.95 40.0495 59.07C40.1695 59.19 40.2295 59.3367 40.2295 59.51C40.2295 59.6833 40.1695 59.83 40.0495 59.95C39.9361 60.07 39.7961 60.13 39.6295 60.13ZM40.0695 61.02V66.5H39.1595V61.02H40.0695ZM48.3104 60.92C48.7371 60.92 49.1171 61.01 49.4504 61.19C49.7837 61.3633 50.0471 61.6267 50.2404 61.98C50.4337 62.3333 50.5304 62.7633 50.5304 63.27V66.5H49.6304V63.4C49.6304 62.8533 49.4937 62.4367 49.2204 62.15C48.9537 61.8567 48.5904 61.71 48.1304 61.71C47.6571 61.71 47.2804 61.8633 47.0004 62.17C46.7204 62.47 46.5804 62.9067 46.5804 63.48V66.5H45.6804V63.4C45.6804 62.8533 45.5437 62.4367 45.2704 62.15C45.0037 61.8567 44.6404 61.71 44.1804 61.71C43.7071 61.71 43.3304 61.8633 43.0504 62.17C42.7704 62.47 42.6304 62.9067 42.6304 63.48V66.5H41.7204V61.02H42.6304V61.81C42.8104 61.5233 43.0504 61.3033 43.3504 61.15C43.6571 60.9967 43.9937 60.92 44.3604 60.92C44.8204 60.92 45.2271 61.0233 45.5804 61.23C45.9337 61.4367 46.1971 61.74 46.3704 62.14C46.5237 61.7533 46.7771 61.4533 47.1304 61.24C47.4837 61.0267 47.8771 60.92 48.3104 60.92ZM57.1231 63.55C57.1231 63.7233 57.1131 63.9067 57.0931 64.1H52.7131C52.7465 64.64 52.9298 65.0633 53.2631 65.37C53.6031 65.67 54.0131 65.82 54.4931 65.82C54.8865 65.82 55.2131 65.73 55.4731 65.55C55.7398 65.3633 55.9265 65.1167 56.0331 64.81H57.0131C56.8665 65.3367 56.5731 65.7667 56.1331 66.1C55.6931 66.4267 55.1465 66.59 54.4931 66.59C53.9731 66.59 53.5065 66.4733 53.0931 66.24C52.6865 66.0067 52.3665 65.6767 52.1331 65.25C51.8998 64.8167 51.7831 64.3167 51.7831 63.75C51.7831 63.1833 51.8965 62.6867 52.1231 62.26C52.3498 61.8333 52.6665 61.5067 53.0731 61.28C53.4865 61.0467 53.9598 60.93 54.4931 60.93C55.0131 60.93 55.4731 61.0433 55.8731 61.27C56.2731 61.4967 56.5798 61.81 56.7931 62.21C57.0131 62.6033 57.1231 63.05 57.1231 63.55ZM56.1831 63.36C56.1831 63.0133 56.1065 62.7167 55.9531 62.47C55.7998 62.2167 55.5898 62.0267 55.3231 61.9C55.0631 61.7667 54.7731 61.7 54.4531 61.7C53.9931 61.7 53.5998 61.8467 53.2731 62.14C52.9531 62.4333 52.7698 62.84 52.7231 63.36H56.1831ZM66.5403 66.5L65.6303 65.58C65.2903 65.9333 64.927 66.1967 64.5403 66.37C64.1536 66.5367 63.717 66.62 63.2303 66.62C62.7503 66.62 62.3236 66.5333 61.9503 66.36C61.5836 66.1867 61.297 65.94 61.0903 65.62C60.8903 65.3 60.7903 64.9267 60.7903 64.5C60.7903 64.0133 60.927 63.5867 61.2003 63.22C61.4803 62.8467 61.8903 62.5533 62.4303 62.34C62.217 62.0867 62.0636 61.8533 61.9703 61.64C61.877 61.4267 61.8303 61.1933 61.8303 60.94C61.8303 60.6467 61.9036 60.3833 62.0503 60.15C62.2036 59.91 62.4203 59.7233 62.7003 59.59C62.9803 59.4567 63.3036 59.39 63.6703 59.39C64.0303 59.39 64.3436 59.46 64.6103 59.6C64.877 59.74 65.077 59.9367 65.2103 60.19C65.3436 60.4367 65.4036 60.7133 65.3903 61.02H64.4803C64.487 60.7467 64.4103 60.5333 64.2503 60.38C64.0903 60.22 63.8836 60.14 63.6303 60.14C63.3636 60.14 63.147 60.2167 62.9803 60.37C62.8203 60.5167 62.7403 60.7067 62.7403 60.94C62.7403 61.14 62.7936 61.3333 62.9003 61.52C63.0136 61.7067 63.2003 61.9367 63.4603 62.21L65.5403 64.3L65.7203 64.02L66.4003 62.88H67.3803L66.5603 64.3C66.447 64.5 66.3136 64.71 66.1603 64.93L67.7303 66.5H66.5403ZM63.2303 65.84C63.5903 65.84 63.9136 65.77 64.2003 65.63C64.4936 65.49 64.7703 65.2733 65.0303 64.98L62.9803 62.92C62.127 63.2467 61.7003 63.7633 61.7003 64.47C61.7003 64.8633 61.8403 65.19 62.1203 65.45C62.407 65.71 62.777 65.84 63.2303 65.84ZM24.6757 74.53C25.4357 74.53 26.0924 74.6733 26.6457 74.96C27.2057 75.24 27.6324 75.6433 27.9257 76.17C28.2257 76.6967 28.3757 77.3167 28.3757 78.03C28.3757 78.7433 28.2257 79.3633 27.9257 79.89C27.6324 80.41 27.2057 80.81 26.6457 81.09C26.0924 81.3633 25.4357 81.5 24.6757 81.5H22.5057V74.53H24.6757ZM24.6757 80.75C25.5757 80.75 26.2624 80.5133 26.7357 80.04C27.2091 79.56 27.4457 78.89 27.4457 78.03C27.4457 77.1633 27.2057 76.4867 26.7257 76C26.2524 75.5133 25.5691 75.27 24.6757 75.27H23.4157V80.75H24.6757ZM29.3361 78.74C29.3361 78.18 29.4494 77.69 29.6761 77.27C29.9027 76.8433 30.2127 76.5133 30.6061 76.28C31.0061 76.0467 31.4494 75.93 31.9361 75.93C32.4161 75.93 32.8327 76.0333 33.1861 76.24C33.5394 76.4467 33.8027 76.7067 33.9761 77.02V76.02H34.8961V81.5H33.9761V80.48C33.7961 80.8 33.5261 81.0667 33.1661 81.28C32.8127 81.4867 32.3994 81.59 31.9261 81.59C31.4394 81.59 30.9994 81.47 30.6061 81.23C30.2127 80.99 29.9027 80.6533 29.6761 80.22C29.4494 79.7867 29.3361 79.2933 29.3361 78.74ZM33.9761 78.75C33.9761 78.3367 33.8927 77.9767 33.7261 77.67C33.5594 77.3633 33.3327 77.13 33.0461 76.97C32.7661 76.8033 32.4561 76.72 32.1161 76.72C31.7761 76.72 31.4661 76.8 31.1861 76.96C30.9061 77.12 30.6827 77.3533 30.5161 77.66C30.3494 77.9667 30.2661 78.3267 30.2661 78.74C30.2661 79.16 30.3494 79.5267 30.5161 79.84C30.6827 80.1467 30.9061 80.3833 31.1861 80.55C31.4661 80.71 31.7761 80.79 32.1161 80.79C32.4561 80.79 32.7661 80.71 33.0461 80.55C33.3327 80.3833 33.5594 80.1467 33.7261 79.84C33.8927 79.5267 33.9761 79.1633 33.9761 78.75ZM37.6439 76.77V80C37.6439 80.2667 37.7005 80.4567 37.8139 80.57C37.9272 80.6767 38.1239 80.73 38.4039 80.73H39.0739V81.5H38.2539C37.7472 81.5 37.3672 81.3833 37.1139 81.15C36.8605 80.9167 36.7339 80.5333 36.7339 80V76.77H36.0239V76.02H36.7339V74.64H37.6439V76.02H39.0739V76.77H37.6439ZM39.9364 78.74C39.9364 78.18 40.0498 77.69 40.2764 77.27C40.5031 76.8433 40.8131 76.5133 41.2064 76.28C41.6064 76.0467 42.0498 75.93 42.5364 75.93C43.0164 75.93 43.4331 76.0333 43.7864 76.24C44.1398 76.4467 44.4031 76.7067 44.5764 77.02V76.02H45.4964V81.5H44.5764V80.48C44.3964 80.8 44.1264 81.0667 43.7664 81.28C43.4131 81.4867 42.9998 81.59 42.5264 81.59C42.0398 81.59 41.5998 81.47 41.2064 81.23C40.8131 80.99 40.5031 80.6533 40.2764 80.22C40.0498 79.7867 39.9364 79.2933 39.9364 78.74ZM44.5764 78.75C44.5764 78.3367 44.4931 77.9767 44.3264 77.67C44.1598 77.3633 43.9331 77.13 43.6464 76.97C43.3664 76.8033 43.0564 76.72 42.7164 76.72C42.3764 76.72 42.0664 76.8 41.7864 76.96C41.5064 77.12 41.2831 77.3533 41.1164 77.66C40.9498 77.9667 40.8664 78.3267 40.8664 78.74C40.8664 79.16 40.9498 79.5267 41.1164 79.84C41.2831 80.1467 41.5064 80.3833 41.7864 80.55C42.0664 80.71 42.3764 80.79 42.7164 80.79C43.0564 80.79 43.3664 80.71 43.6464 80.55C43.9331 80.3833 44.1598 80.1467 44.3264 79.84C44.4931 79.5267 44.5764 79.1633 44.5764 78.75Z" fill="#9BC94A"/>
<g clip-path="url(#clip0_1445_272)">
<path d="M17.875 6.75C17.875 5.0924 18.5335 3.50269 19.7056 2.33058C20.8777 1.15848 22.4674 0.5 24.125 0.5L42.875 0.5C44.5326 0.5 46.1223 1.15848 47.2944 2.33058C48.4665 3.50269 49.125 5.0924 49.125 6.75V44.25C49.125 45.9076 48.4665 47.4973 47.2944 48.6694C46.1223 49.8415 44.5326 50.5 42.875 50.5H24.125C22.4674 50.5 20.8777 49.8415 19.7056 48.6694C18.5335 47.4973 17.875 45.9076 17.875 44.25V6.75ZM36.625 41.125C36.625 40.2962 36.2958 39.5013 35.7097 38.9153C35.1237 38.3292 34.3288 38 33.5 38C32.6712 38 31.8763 38.3292 31.2903 38.9153C30.7042 39.5013 30.375 40.2962 30.375 41.125C30.375 41.9538 30.7042 42.7487 31.2903 43.3347C31.8763 43.9208 32.6712 44.25 33.5 44.25C34.3288 44.25 35.1237 43.9208 35.7097 43.3347C36.2958 42.7487 36.625 41.9538 36.625 41.125Z" fill="#9BC94A"/>
</g>
<defs>
<clipPath id="clip0_1445_272">
<rect width="50" height="50" fill="white" transform="translate(8.5 0.5)"/>
</clipPath>
</defs>
</svg>
