<svg width="58" height="67" viewBox="0 0 58 67" fill="none" xmlns="http://www.w3.org/2000/svg">
<path d="M3.44 55.53C4.2 55.53 4.85667 55.6733 5.41 55.96C5.97 56.24 6.39667 56.6433 6.69 57.17C6.99 57.6967 7.14 58.3167 7.14 59.03C7.14 59.7433 6.99 60.3633 6.69 60.89C6.39667 61.41 5.97 61.81 5.41 62.09C4.85667 62.3633 4.2 62.5 3.44 62.5H1.27V55.53H3.44ZM3.44 61.75C4.34 61.75 5.02667 61.5133 5.5 61.04C5.97333 60.56 6.21 59.89 6.21 59.03C6.21 58.1633 5.97 57.4867 5.49 57C5.01667 56.5133 4.33333 56.27 3.44 56.27H2.18V61.75H3.44ZM8.10031 59.74C8.10031 59.18 8.21365 58.69 8.44031 58.27C8.66698 57.8433 8.97698 57.5133 9.37031 57.28C9.77031 57.0467 10.2136 56.93 10.7003 56.93C11.1803 56.93 11.597 57.0333 11.9503 57.24C12.3036 57.4467 12.567 57.7067 12.7403 58.02V57.02H13.6603V62.5H12.7403V61.48C12.5603 61.8 12.2903 62.0667 11.9303 62.28C11.577 62.4867 11.1636 62.59 10.6903 62.59C10.2036 62.59 9.76365 62.47 9.37031 62.23C8.97698 61.99 8.66698 61.6533 8.44031 61.22C8.21365 60.7867 8.10031 60.2933 8.10031 59.74ZM12.7403 59.75C12.7403 59.3367 12.657 58.9767 12.4903 58.67C12.3236 58.3633 12.097 58.13 11.8103 57.97C11.5303 57.8033 11.2203 57.72 10.8803 57.72C10.5403 57.72 10.2303 57.8 9.95031 57.96C9.67031 58.12 9.44698 58.3533 9.28031 58.66C9.11365 58.9667 9.03031 59.3267 9.03031 59.74C9.03031 60.16 9.11365 60.5267 9.28031 60.84C9.44698 61.1467 9.67031 61.3833 9.95031 61.55C10.2303 61.71 10.5403 61.79 10.8803 61.79C11.2203 61.79 11.5303 61.71 11.8103 61.55C12.097 61.3833 12.3236 61.1467 12.4903 60.84C12.657 60.5267 12.7403 60.1633 12.7403 59.75ZM17.2381 62.59C16.8181 62.59 16.4415 62.52 16.1081 62.38C15.7748 62.2333 15.5115 62.0333 15.3181 61.78C15.1248 61.52 15.0181 61.2233 14.9981 60.89H15.9381C15.9648 61.1633 16.0915 61.3867 16.3181 61.56C16.5515 61.7333 16.8548 61.82 17.2281 61.82C17.5748 61.82 17.8481 61.7433 18.0481 61.59C18.2481 61.4367 18.3481 61.2433 18.3481 61.01C18.3481 60.77 18.2415 60.5933 18.0281 60.48C17.8148 60.36 17.4848 60.2433 17.0381 60.13C16.6315 60.0233 16.2981 59.9167 16.0381 59.81C15.7848 59.6967 15.5648 59.5333 15.3781 59.32C15.1981 59.1 15.1081 58.8133 15.1081 58.46C15.1081 58.18 15.1915 57.9233 15.3581 57.69C15.5248 57.4567 15.7615 57.2733 16.0681 57.14C16.3748 57 16.7248 56.93 17.1181 56.93C17.7248 56.93 18.2148 57.0833 18.5881 57.39C18.9615 57.6967 19.1615 58.1167 19.1881 58.65H18.2781C18.2581 58.3633 18.1415 58.1333 17.9281 57.96C17.7215 57.7867 17.4415 57.7 17.0881 57.7C16.7615 57.7 16.5015 57.77 16.3081 57.91C16.1148 58.05 16.0181 58.2333 16.0181 58.46C16.0181 58.64 16.0748 58.79 16.1881 58.91C16.3081 59.0233 16.4548 59.1167 16.6281 59.19C16.8081 59.2567 17.0548 59.3333 17.3681 59.42C17.7615 59.5267 18.0815 59.6333 18.3281 59.74C18.5748 59.84 18.7848 59.9933 18.9581 60.2C19.1381 60.4067 19.2315 60.6767 19.2381 61.01C19.2381 61.31 19.1548 61.58 18.9881 61.82C18.8215 62.06 18.5848 62.25 18.2781 62.39C17.9781 62.5233 17.6315 62.59 17.2381 62.59ZM23.3427 56.92C23.7561 56.92 24.1294 57.01 24.4627 57.19C24.7961 57.3633 25.0561 57.6267 25.2427 57.98C25.4361 58.3333 25.5327 58.7633 25.5327 59.27V62.5H24.6327V59.4C24.6327 58.8533 24.4961 58.4367 24.2227 58.15C23.9494 57.8567 23.5761 57.71 23.1027 57.71C22.6227 57.71 22.2394 57.86 21.9527 58.16C21.6727 58.46 21.5327 58.8967 21.5327 59.47V62.5H20.6227V55.1H21.5327V57.8C21.7127 57.52 21.9594 57.3033 22.2727 57.15C22.5927 56.9967 22.9494 56.92 23.3427 56.92ZM28.0292 58.04C28.2159 57.7133 28.4892 57.4467 28.8492 57.24C29.2092 57.0333 29.6192 56.93 30.0792 56.93C30.5726 56.93 31.0159 57.0467 31.4092 57.28C31.8026 57.5133 32.1126 57.8433 32.3392 58.27C32.5659 58.69 32.6792 59.18 32.6792 59.74C32.6792 60.2933 32.5659 60.7867 32.3392 61.22C32.1126 61.6533 31.7992 61.99 31.3992 62.23C31.0059 62.47 30.5659 62.59 30.0792 62.59C29.6059 62.59 29.1892 62.4867 28.8292 62.28C28.4759 62.0733 28.2092 61.81 28.0292 61.49V62.5H27.1192V55.1H28.0292V58.04ZM31.7492 59.74C31.7492 59.3267 31.6659 58.9667 31.4992 58.66C31.3326 58.3533 31.1059 58.12 30.8192 57.96C30.5392 57.8 30.2292 57.72 29.8892 57.72C29.5559 57.72 29.2459 57.8033 28.9592 57.97C28.6792 58.13 28.4526 58.3667 28.2792 58.68C28.1126 58.9867 28.0292 59.3433 28.0292 59.75C28.0292 60.1633 28.1126 60.5267 28.2792 60.84C28.4526 61.1467 28.6792 61.3833 28.9592 61.55C29.2459 61.71 29.5559 61.79 29.8892 61.79C30.2292 61.79 30.5392 61.71 30.8192 61.55C31.1059 61.3833 31.3326 61.1467 31.4992 60.84C31.6659 60.5267 31.7492 60.16 31.7492 59.74ZM36.367 62.59C35.8537 62.59 35.387 62.4733 34.967 62.24C34.5537 62.0067 34.227 61.6767 33.987 61.25C33.7537 60.8167 33.637 60.3167 33.637 59.75C33.637 59.19 33.757 58.6967 33.997 58.27C34.2437 57.8367 34.577 57.5067 34.997 57.28C35.417 57.0467 35.887 56.93 36.407 56.93C36.927 56.93 37.397 57.0467 37.817 57.28C38.237 57.5067 38.567 57.8333 38.807 58.26C39.0537 58.6867 39.177 59.1833 39.177 59.75C39.177 60.3167 39.0504 60.8167 38.797 61.25C38.5504 61.6767 38.2137 62.0067 37.787 62.24C37.3604 62.4733 36.887 62.59 36.367 62.59ZM36.367 61.79C36.6937 61.79 37.0004 61.7133 37.287 61.56C37.5737 61.4067 37.8037 61.1767 37.977 60.87C38.157 60.5633 38.247 60.19 38.247 59.75C38.247 59.31 38.1604 58.9367 37.987 58.63C37.8137 58.3233 37.587 58.0967 37.307 57.95C37.027 57.7967 36.7237 57.72 36.397 57.72C36.0637 57.72 35.757 57.7967 35.477 57.95C35.2037 58.0967 34.9837 58.3233 34.817 58.63C34.6504 58.9367 34.567 59.31 34.567 59.75C34.567 60.1967 34.647 60.5733 34.807 60.88C34.9737 61.1867 35.1937 61.4167 35.467 61.57C35.7404 61.7167 36.0404 61.79 36.367 61.79ZM40.1335 59.74C40.1335 59.18 40.2468 58.69 40.4735 58.27C40.7002 57.8433 41.0102 57.5133 41.4035 57.28C41.8035 57.0467 42.2468 56.93 42.7335 56.93C43.2135 56.93 43.6302 57.0333 43.9835 57.24C44.3368 57.4467 44.6002 57.7067 44.7735 58.02V57.02H45.6935V62.5H44.7735V61.48C44.5935 61.8 44.3235 62.0667 43.9635 62.28C43.6102 62.4867 43.1968 62.59 42.7235 62.59C42.2368 62.59 41.7968 62.47 41.4035 62.23C41.0102 61.99 40.7002 61.6533 40.4735 61.22C40.2468 60.7867 40.1335 60.2933 40.1335 59.74ZM44.7735 59.75C44.7735 59.3367 44.6902 58.9767 44.5235 58.67C44.3568 58.3633 44.1302 58.13 43.8435 57.97C43.5635 57.8033 43.2535 57.72 42.9135 57.72C42.5735 57.72 42.2635 57.8 41.9835 57.96C41.7035 58.12 41.4802 58.3533 41.3135 58.66C41.1468 58.9667 41.0635 59.3267 41.0635 59.74C41.0635 60.16 41.1468 60.5267 41.3135 60.84C41.4802 61.1467 41.7035 61.3833 41.9835 61.55C42.2635 61.71 42.5735 61.79 42.9135 61.79C43.2535 61.79 43.5635 61.71 43.8435 61.55C44.1302 61.3833 44.3568 61.1467 44.5235 60.84C44.6902 60.5267 44.7735 60.1633 44.7735 59.75ZM48.2413 57.91C48.4013 57.5967 48.628 57.3533 48.9213 57.18C49.2213 57.0067 49.5847 56.92 50.0113 56.92V57.86H49.7713C48.7513 57.86 48.2413 58.4133 48.2413 59.52V62.5H47.3313V57.02H48.2413V57.91ZM50.8218 59.74C50.8218 59.18 50.9351 58.69 51.1618 58.27C51.3885 57.8433 51.6985 57.5133 52.0918 57.28C52.4918 57.0467 52.9385 56.93 53.4318 56.93C53.8585 56.93 54.2551 57.03 54.6218 57.23C54.9885 57.4233 55.2685 57.68 55.4618 58V55.1H56.3818V62.5H55.4618V61.47C55.2818 61.7967 55.0151 62.0667 54.6618 62.28C54.3085 62.4867 53.8951 62.59 53.4218 62.59C52.9351 62.59 52.4918 62.47 52.0918 62.23C51.6985 61.99 51.3885 61.6533 51.1618 61.22C50.9351 60.7867 50.8218 60.2933 50.8218 59.74ZM55.4618 59.75C55.4618 59.3367 55.3785 58.9767 55.2118 58.67C55.0451 58.3633 54.8185 58.13 54.5318 57.97C54.2518 57.8033 53.9418 57.72 53.6018 57.72C53.2618 57.72 52.9518 57.8 52.6718 57.96C52.3918 58.12 52.1685 58.3533 52.0018 58.66C51.8351 58.9667 51.7518 59.3267 51.7518 59.74C51.7518 60.16 51.8351 60.5267 52.0018 60.84C52.1685 61.1467 52.3918 61.3833 52.6718 61.55C52.9518 61.71 53.2618 61.79 53.6018 61.79C53.9418 61.79 54.2518 61.71 54.5318 61.55C54.8185 61.3833 55.0451 61.1467 55.2118 60.84C55.3785 60.5267 55.4618 60.1633 55.4618 59.75Z" fill="#9BC94A"/>
<path d="M48.5531 14.6609C47.3892 11.9059 45.7017 9.40289 43.5844 7.29062C41.4721 5.17326 38.9691 3.48583 36.2141 2.32187C33.3519 1.11074 30.3188 0.5 27.1875 0.5C24.0562 0.5 21.0231 1.11074 18.1609 2.32187C15.4059 3.48583 12.9029 5.17326 10.7906 7.29062C8.67326 9.40289 6.98583 11.9059 5.82187 14.6609C4.61074 17.5231 4 20.5562 4 23.6875C4 30.5558 7.01748 37.0255 12.2761 41.4456L12.3641 41.5181C12.6643 41.7665 13.0421 41.9062 13.4303 41.9062H40.9499C41.3381 41.9062 41.7159 41.7665 42.0161 41.5181L42.1041 41.4456C47.3575 37.0255 50.375 30.5558 50.375 23.6875C50.375 20.5562 49.7591 17.5231 48.5531 14.6609ZM25.6348 6.71094C25.6348 6.4832 25.8211 6.29688 26.0488 6.29688H28.3262C28.5539 6.29688 28.7402 6.4832 28.7402 6.71094V10.8516C28.7402 11.0793 28.5539 11.2656 28.3262 11.2656H26.0488C25.8211 11.2656 25.6348 11.0793 25.6348 10.8516V6.71094ZM14.6621 24.8262C14.6621 25.0539 14.4758 25.2402 14.248 25.2402H10.1074C9.87969 25.2402 9.69336 25.0539 9.69336 24.8262V22.5488C9.69336 22.3211 9.87969 22.1348 10.1074 22.1348H14.248C14.4758 22.1348 14.6621 22.3211 14.6621 22.5488V24.8262ZM19.3565 14.2417L17.7469 15.8514C17.6691 15.9284 17.564 15.9717 17.4544 15.9717C17.3449 15.9717 17.2398 15.9284 17.162 15.8514L14.2325 12.9219C14.1555 12.8441 14.1122 12.739 14.1122 12.6294C14.1122 12.5199 14.1555 12.4148 14.2325 12.337L15.8422 10.7273C16.0026 10.5669 16.2666 10.5669 16.4271 10.7273L19.3565 13.6568C19.517 13.8173 19.517 14.0813 19.3565 14.2417ZM34.4232 18.5687L30.0497 22.9422C30.3085 23.9101 30.0601 24.9814 29.2992 25.7423C29.0302 26.0118 28.7108 26.2256 28.3591 26.3714C28.0074 26.5173 27.6304 26.5924 27.2496 26.5924C26.8689 26.5924 26.4918 26.5173 26.1402 26.3714C25.7885 26.2256 25.469 26.0118 25.2 25.7423C24.9305 25.4733 24.7167 25.1538 24.5708 24.8021C24.425 24.4504 24.3499 24.0734 24.3499 23.6927C24.3499 23.3119 24.425 22.9349 24.5708 22.5832C24.7167 22.2315 24.9305 21.912 25.2 21.6431C25.5594 21.2826 26.0075 21.0234 26.4992 20.8916C26.9909 20.7598 27.5086 20.7602 28.0001 20.8926L32.3736 16.519C32.5341 16.3586 32.798 16.3586 32.9585 16.519L34.4232 17.9838C34.5837 18.1442 34.5837 18.403 34.4232 18.5687ZM36.6488 15.8565L35.0392 14.2469C34.9621 14.1691 34.9189 14.064 34.9189 13.9544C34.9189 13.8449 34.9621 13.7398 35.0392 13.662L37.9687 10.7325C38.1291 10.5721 38.3931 10.5721 38.5535 10.7325L40.1632 12.3422C40.3236 12.5026 40.3236 12.7666 40.1632 12.9271L37.2337 15.8565C37.1559 15.9336 37.0508 15.9768 36.9413 15.9768C36.8317 15.9768 36.7267 15.9336 36.6488 15.8565ZM44.4746 24.8262C44.4746 25.0539 44.2883 25.2402 44.0605 25.2402H39.9199C39.6922 25.2402 39.5059 25.0539 39.5059 24.8262V22.5488C39.5059 22.3211 39.6922 22.1348 39.9199 22.1348H44.0605C44.2883 22.1348 44.4746 22.3211 44.4746 22.5488V24.8262Z" fill="#9BC94A"/>
</svg>
