<svg width="50" height="72" viewBox="0 0 50 72" fill="none" xmlns="http://www.w3.org/2000/svg">
<path d="M8.93 62.57C8.93 63.15 8.73 63.6333 8.33 64.02C7.93667 64.4 7.33333 64.59 6.52 64.59H5.18V67.5H4.27V60.53H6.52C7.30667 60.53 7.90333 60.72 8.31 61.1C8.72333 61.48 8.93 61.97 8.93 62.57ZM6.52 63.84C7.02667 63.84 7.4 63.73 7.64 63.51C7.88 63.29 8 62.9767 8 62.57C8 61.71 7.50667 61.28 6.52 61.28H5.18V63.84H6.52ZM9.82102 64.74C9.82102 64.18 9.93435 63.69 10.161 63.27C10.3877 62.8433 10.6977 62.5133 11.091 62.28C11.491 62.0467 11.9343 61.93 12.421 61.93C12.901 61.93 13.3177 62.0333 13.671 62.24C14.0243 62.4467 14.2877 62.7067 14.461 63.02V62.02H15.381V67.5H14.461V66.48C14.281 66.8 14.011 67.0667 13.651 67.28C13.2977 67.4867 12.8843 67.59 12.411 67.59C11.9243 67.59 11.4843 67.47 11.091 67.23C10.6977 66.99 10.3877 66.6533 10.161 66.22C9.93435 65.7867 9.82102 65.2933 9.82102 64.74ZM14.461 64.75C14.461 64.3367 14.3777 63.9767 14.211 63.67C14.0443 63.3633 13.8177 63.13 13.531 62.97C13.251 62.8033 12.941 62.72 12.601 62.72C12.261 62.72 11.951 62.8 11.671 62.96C11.391 63.12 11.1677 63.3533 11.001 63.66C10.8343 63.9667 10.751 64.3267 10.751 64.74C10.751 65.16 10.8343 65.5267 11.001 65.84C11.1677 66.1467 11.391 66.3833 11.671 66.55C11.951 66.71 12.261 66.79 12.601 66.79C12.941 66.79 13.251 66.71 13.531 66.55C13.8177 66.3833 14.0443 66.1467 14.211 65.84C14.3777 65.5267 14.461 65.1633 14.461 64.75ZM21.7388 62.02L18.4388 70.08H17.4988L18.5788 67.44L16.3688 62.02H17.3788L19.0988 66.46L20.7988 62.02H21.7388ZM29.0096 63.91C29.2629 63.95 29.4929 64.0533 29.6996 64.22C29.9129 64.3867 30.0796 64.5933 30.1996 64.84C30.3263 65.0867 30.3896 65.35 30.3896 65.63C30.3896 65.9833 30.2996 66.3033 30.1196 66.59C29.9396 66.87 29.6763 67.0933 29.3296 67.26C28.9896 67.42 28.5863 67.5 28.1196 67.5H25.5196V60.53H28.0196C28.4929 60.53 28.8963 60.61 29.2296 60.77C29.5629 60.9233 29.8129 61.1333 29.9796 61.4C30.1463 61.6667 30.2296 61.9667 30.2296 62.3C30.2296 62.7133 30.1163 63.0567 29.8896 63.33C29.6696 63.5967 29.3763 63.79 29.0096 63.91ZM26.4296 63.54H27.9596C28.3863 63.54 28.7163 63.44 28.9496 63.24C29.1829 63.04 29.2996 62.7633 29.2996 62.41C29.2996 62.0567 29.1829 61.78 28.9496 61.58C28.7163 61.38 28.3796 61.28 27.9396 61.28H26.4296V63.54ZM28.0396 66.75C28.4929 66.75 28.8463 66.6433 29.0996 66.43C29.3529 66.2167 29.4796 65.92 29.4796 65.54C29.4796 65.1533 29.3463 64.85 29.0796 64.63C28.8129 64.4033 28.4563 64.29 28.0096 64.29H26.4296V66.75H28.0396ZM32.2224 61.13C32.0491 61.13 31.9024 61.07 31.7824 60.95C31.6624 60.83 31.6024 60.6833 31.6024 60.51C31.6024 60.3367 31.6624 60.19 31.7824 60.07C31.9024 59.95 32.0491 59.89 32.2224 59.89C32.3891 59.89 32.5291 59.95 32.6424 60.07C32.7624 60.19 32.8224 60.3367 32.8224 60.51C32.8224 60.6833 32.7624 60.83 32.6424 60.95C32.5291 61.07 32.3891 61.13 32.2224 61.13ZM32.6624 62.02V67.5H31.7524V62.02H32.6624ZM35.2234 60.1V67.5H34.3134V60.1H35.2234ZM37.7843 60.1V67.5H36.8743V60.1H37.7843ZM41.3752 67.59C40.9552 67.59 40.5786 67.52 40.2452 67.38C39.9119 67.2333 39.6486 67.0333 39.4552 66.78C39.2619 66.52 39.1552 66.2233 39.1352 65.89H40.0752C40.1019 66.1633 40.2286 66.3867 40.4552 66.56C40.6886 66.7333 40.9919 66.82 41.3652 66.82C41.7119 66.82 41.9852 66.7433 42.1852 66.59C42.3852 66.4367 42.4852 66.2433 42.4852 66.01C42.4852 65.77 42.3786 65.5933 42.1652 65.48C41.9519 65.36 41.6219 65.2433 41.1752 65.13C40.7686 65.0233 40.4352 64.9167 40.1752 64.81C39.9219 64.6967 39.7019 64.5333 39.5152 64.32C39.3352 64.1 39.2452 63.8133 39.2452 63.46C39.2452 63.18 39.3286 62.9233 39.4952 62.69C39.6619 62.4567 39.8986 62.2733 40.2052 62.14C40.5119 62 40.8619 61.93 41.2552 61.93C41.8619 61.93 42.3519 62.0833 42.7252 62.39C43.0986 62.6967 43.2986 63.1167 43.3252 63.65H42.4152C42.3952 63.3633 42.2786 63.1333 42.0652 62.96C41.8586 62.7867 41.5786 62.7 41.2252 62.7C40.8986 62.7 40.6386 62.77 40.4452 62.91C40.2519 63.05 40.1552 63.2333 40.1552 63.46C40.1552 63.64 40.2119 63.79 40.3252 63.91C40.4452 64.0233 40.5919 64.1167 40.7652 64.19C40.9452 64.2567 41.1919 64.3333 41.5052 64.42C41.8986 64.5267 42.2186 64.6333 42.4652 64.74C42.7119 64.84 42.9219 64.9933 43.0952 65.2C43.2752 65.4067 43.3686 65.6767 43.3752 66.01C43.3752 66.31 43.2919 66.58 43.1252 66.82C42.9586 67.06 42.7219 67.25 42.4152 67.39C42.1152 67.5233 41.7686 67.59 41.3752 67.59Z" fill="#9BC94A"/>
<path d="M39.5835 29.6666V12.9999C39.5835 10.7083 37.7085 8.83325 35.4168 8.83325H6.25016C3.9585 8.83325 2.0835 10.7083 2.0835 12.9999V29.6666C2.0835 31.9583 3.9585 33.8333 6.25016 33.8333H35.4168C37.7085 33.8333 39.5835 31.9583 39.5835 29.6666ZM20.8335 27.5833C17.3752 27.5833 14.5835 24.7916 14.5835 21.3333C14.5835 17.8749 17.3752 15.0833 20.8335 15.0833C24.2918 15.0833 27.0835 17.8749 27.0835 21.3333C27.0835 24.7916 24.2918 27.5833 20.8335 27.5833ZM47.9168 15.0833V37.9999C47.9168 40.2916 46.0418 42.1666 43.7502 42.1666H8.3335V37.9999H43.7502V15.0833H47.9168Z" fill="#9BC94A"/>
</svg>
