<svg width="52" height="75" viewBox="0 0 52 75" fill="none" xmlns="http://www.w3.org/2000/svg">
<path d="M4.076 69.584C3.524 69.584 3.028 69.488 2.588 69.296C2.156 69.096 1.816 68.824 1.568 68.48C1.32 68.128 1.192 67.724 1.184 67.268H2.348C2.388 67.66 2.548 67.992 2.828 68.264C3.116 68.528 3.532 68.66 4.076 68.66C4.596 68.66 5.004 68.532 5.3 68.276C5.604 68.012 5.756 67.676 5.756 67.268C5.756 66.948 5.668 66.688 5.492 66.488C5.316 66.288 5.096 66.136 4.832 66.032C4.568 65.928 4.212 65.816 3.764 65.696C3.212 65.552 2.768 65.408 2.432 65.264C2.104 65.12 1.82 64.896 1.58 64.592C1.348 64.28 1.232 63.864 1.232 63.344C1.232 62.888 1.348 62.484 1.58 62.132C1.812 61.78 2.136 61.508 2.552 61.316C2.976 61.124 3.46 61.028 4.004 61.028C4.788 61.028 5.428 61.224 5.924 61.616C6.428 62.008 6.712 62.528 6.776 63.176H5.576C5.536 62.856 5.368 62.576 5.072 62.336C4.776 62.088 4.384 61.964 3.896 61.964C3.44 61.964 3.068 62.084 2.78 62.324C2.492 62.556 2.348 62.884 2.348 63.308C2.348 63.612 2.432 63.86 2.6 64.052C2.776 64.244 2.988 64.392 3.236 64.496C3.492 64.592 3.848 64.704 4.304 64.832C4.856 64.984 5.3 65.136 5.636 65.288C5.972 65.432 6.26 65.66 6.5 65.972C6.74 66.276 6.86 66.692 6.86 67.22C6.86 67.628 6.752 68.012 6.536 68.372C6.32 68.732 6 69.024 5.576 69.248C5.152 69.472 4.652 69.584 4.076 69.584ZM14.567 65.96C14.567 66.168 14.555 66.388 14.531 66.62H9.27497C9.31497 67.268 9.53497 67.776 9.93497 68.144C10.343 68.504 10.835 68.684 11.411 68.684C11.883 68.684 12.275 68.576 12.587 68.36C12.907 68.136 13.131 67.84 13.259 67.472H14.435C14.259 68.104 13.907 68.62 13.379 69.02C12.851 69.412 12.195 69.608 11.411 69.608C10.787 69.608 10.227 69.468 9.73097 69.188C9.24297 68.908 8.85897 68.512 8.57897 68C8.29897 67.48 8.15897 66.88 8.15897 66.2C8.15897 65.52 8.29497 64.924 8.56697 64.412C8.83897 63.9 9.21897 63.508 9.70697 63.236C10.203 62.956 10.771 62.816 11.411 62.816C12.035 62.816 12.587 62.952 13.067 63.224C13.547 63.496 13.915 63.872 14.171 64.352C14.435 64.824 14.567 65.36 14.567 65.96ZM13.439 65.732C13.439 65.316 13.347 64.96 13.163 64.664C12.979 64.36 12.727 64.132 12.407 63.98C12.095 63.82 11.747 63.74 11.363 63.74C10.811 63.74 10.339 63.916 9.94697 64.268C9.56297 64.62 9.34297 65.108 9.28697 65.732H13.439ZM17.2004 63.992C17.3924 63.616 17.6644 63.324 18.0164 63.116C18.3764 62.908 18.8124 62.804 19.3244 62.804V63.932H19.0364C17.8124 63.932 17.2004 64.596 17.2004 65.924V69.5H16.1084V62.924H17.2004V63.992ZM23.1329 68.492L25.1729 62.924H26.3369L23.7569 69.5H22.4849L19.9049 62.924H21.0809L23.1329 68.492ZM28.0755 61.856C27.8675 61.856 27.6915 61.784 27.5475 61.64C27.4035 61.496 27.3315 61.32 27.3315 61.112C27.3315 60.904 27.4035 60.728 27.5475 60.584C27.6915 60.44 27.8675 60.368 28.0755 60.368C28.2755 60.368 28.4435 60.44 28.5795 60.584C28.7235 60.728 28.7955 60.904 28.7955 61.112C28.7955 61.32 28.7235 61.496 28.5795 61.64C28.4435 61.784 28.2755 61.856 28.0755 61.856ZM28.6035 62.924V69.5H27.5115V62.924H28.6035ZM30.1566 66.2C30.1566 65.52 30.2926 64.928 30.5646 64.424C30.8366 63.912 31.2126 63.516 31.6926 63.236C32.1806 62.956 32.7366 62.816 33.3606 62.816C34.1686 62.816 34.8326 63.012 35.3526 63.404C35.8806 63.796 36.2286 64.34 36.3966 65.036H35.2206C35.1086 64.636 34.8886 64.32 34.5606 64.088C34.2406 63.856 33.8406 63.74 33.3606 63.74C32.7366 63.74 32.2326 63.956 31.8486 64.388C31.4646 64.812 31.2726 65.416 31.2726 66.2C31.2726 66.992 31.4646 67.604 31.8486 68.036C32.2326 68.468 32.7366 68.684 33.3606 68.684C33.8406 68.684 34.2406 68.572 34.5606 68.348C34.8806 68.124 35.1006 67.804 35.2206 67.388H36.3966C36.2206 68.06 35.8686 68.6 35.3406 69.008C34.8126 69.408 34.1526 69.608 33.3606 69.608C32.7366 69.608 32.1806 69.468 31.6926 69.188C31.2126 68.908 30.8366 68.512 30.5646 68C30.2926 67.488 30.1566 66.888 30.1566 66.2ZM43.9537 65.96C43.9537 66.168 43.9417 66.388 43.9177 66.62H38.6617C38.7017 67.268 38.9217 67.776 39.3217 68.144C39.7297 68.504 40.2217 68.684 40.7977 68.684C41.2697 68.684 41.6617 68.576 41.9737 68.36C42.2937 68.136 42.5177 67.84 42.6457 67.472H43.8217C43.6457 68.104 43.2937 68.62 42.7657 69.02C42.2377 69.412 41.5817 69.608 40.7977 69.608C40.1737 69.608 39.6137 69.468 39.1177 69.188C38.6297 68.908 38.2457 68.512 37.9657 68C37.6857 67.48 37.5457 66.88 37.5457 66.2C37.5457 65.52 37.6817 64.924 37.9537 64.412C38.2257 63.9 38.6057 63.508 39.0937 63.236C39.5897 62.956 40.1577 62.816 40.7977 62.816C41.4217 62.816 41.9737 62.952 42.4537 63.224C42.9337 63.496 43.3017 63.872 43.5577 64.352C43.8217 64.824 43.9537 65.36 43.9537 65.96ZM42.8257 65.732C42.8257 65.316 42.7337 64.96 42.5497 64.664C42.3657 64.36 42.1137 64.132 41.7937 63.98C41.4817 63.82 41.1337 63.74 40.7497 63.74C40.1977 63.74 39.7257 63.916 39.3337 64.268C38.9497 64.62 38.7297 65.108 38.6737 65.732H42.8257ZM47.8231 69.608C47.3191 69.608 46.8671 69.524 46.4671 69.356C46.0671 69.18 45.7511 68.94 45.5191 68.636C45.2871 68.324 45.1591 67.968 45.1351 67.568H46.2631C46.2951 67.896 46.4471 68.164 46.7191 68.372C46.9991 68.58 47.3631 68.684 47.8111 68.684C48.2271 68.684 48.5551 68.592 48.7951 68.408C49.0351 68.224 49.1551 67.992 49.1551 67.712C49.1551 67.424 49.0271 67.212 48.7711 67.076C48.5151 66.932 48.1191 66.792 47.5831 66.656C47.0951 66.528 46.6951 66.4 46.3831 66.272C46.0791 66.136 45.8151 65.94 45.5911 65.684C45.3751 65.42 45.2671 65.076 45.2671 64.652C45.2671 64.316 45.3671 64.008 45.5671 63.728C45.7671 63.448 46.0511 63.228 46.4191 63.068C46.7871 62.9 47.2071 62.816 47.6791 62.816C48.4071 62.816 48.9951 63 49.4431 63.368C49.8911 63.736 50.1311 64.24 50.1631 64.88H49.0711C49.0471 64.536 48.9071 64.26 48.6511 64.052C48.4031 63.844 48.0671 63.74 47.6431 63.74C47.2511 63.74 46.9391 63.824 46.7071 63.992C46.4751 64.16 46.3591 64.38 46.3591 64.652C46.3591 64.868 46.4271 65.048 46.5631 65.192C46.7071 65.328 46.8831 65.44 47.0911 65.528C47.3071 65.608 47.6031 65.7 47.9791 65.804C48.4511 65.932 48.8351 66.06 49.1311 66.188C49.4271 66.308 49.6791 66.492 49.8871 66.74C50.1031 66.988 50.2151 67.312 50.2231 67.712C50.2231 68.072 50.1231 68.396 49.9231 68.684C49.7231 68.972 49.4391 69.2 49.0711 69.368C48.7111 69.528 48.2951 69.608 47.8231 69.608Z" fill="#9BC94A"/>
<path d="M19.2293 27.5833V21.3333C19.2293 16.4583 23.2085 12.4792 28.0835 12.4792H31.6668C31.396 8.41667 28.0418 5.1875 23.9168 5.1875H15.5835C11.271 5.1875 7.771 8.6875 7.771 13V38C7.771 42.3125 11.271 45.8125 15.5835 45.8125H23.9168C28.2293 45.8125 31.7293 42.3125 31.7293 38V36.4375H28.0835C23.2085 36.4375 19.2293 32.4583 19.2293 27.5833ZM21.8335 42.1667H17.6668C16.8127 42.1667 16.1043 41.4583 16.1043 40.6042C16.1043 39.75 16.8127 39.0417 17.6668 39.0417H21.8335C22.6877 39.0417 23.396 39.75 23.396 40.6042C23.396 41.4583 22.6877 42.1667 21.8335 42.1667Z" fill="#9BC94A"/>
<path d="M40.5837 15.6042H28.0837C24.917 15.6042 22.3545 18.1667 22.3545 21.3334V21.8542H46.3128V21.3334C46.3128 18.1667 43.7503 15.6042 40.5837 15.6042Z" fill="#9BC94A"/>
<path d="M22.3545 27.5834C22.3545 30.7501 24.917 33.3126 28.0837 33.3126H40.5837C43.7503 33.3126 46.3128 30.7501 46.3128 27.5834V24.9792H22.3545V27.5834Z" fill="#9BC94A"/>
</svg>
